{
  "accessors": [
    {
      "bufferView": 2,
      "componentType": 5126,
      "count": 13445,
      "max": [
        0.062743999063968658,
        -0.0025899999309331179,
        0.17184899747371674
      ],
      "min": [
        -0.043381001800298691,
        -0.15713000297546387,
        -0.12818700075149536
      ],
      "type": "VEC3"
    },
    {
      "bufferView": 2,
      "byteOffset": 161340,
      "componentType": 5126,
      "count": 13445,
      "max": [
        0.99996960163116455,
        0.99999755620956421,
        0.99965739250183105
      ],
      "min": [
        -0.99991250038146973,
        -0.9999958872795105,
        -0.9993857741355896
      ],
      "type": "VEC3"
    },
    {
      "bufferView": 3,
      "componentType": 5126,
      "count": 13445,
      "max": [
        1,
        0.9999956488609314,
        0.9999995231628418,
        1
      ],
      "min": [
        -1,
        -0.99999934434890747,
        -0.99999898672103882,
        -1
      ],
      "type": "VEC4"
    },
    {
      "bufferView": 1,
      "componentType": 5126,
      "count": 13445,
      "max": [
        0.97256201505661011,
        0.99500000476837158
      ],
      "min": [
        0.004999999888241291,
        0.004999999888241291
      ],
      "type": "VEC2"
    },
    {
      "bufferView": 0,
      "componentType": 5125,
      "count": 60000,
      "max": [
        13444
      ],
      "min": [
        0
      ],
      "type": "SCALAR"
    }
  ],
  "asset": {
    "extras": {
      "author": "grafi (https://sketchfab.com/zdenkoroman)",
      "license": "CC-BY-4.0 (http://creativecommons.org/licenses/by/4.0/)",
      "source": "https://sketchfab.com/3d-models/nike-shoe-sneakers-grey-3d-scan-414551bcbf6c4b178a28d24003250eb2",
      "title": "Nike Shoe Sneakers Grey 3D Scan"
    },
    "generator": "Sketchfab-9.72.0",
    "version": "2.0"
  },
  "bufferViews": [
    {
      "buffer": 0,
      "byteLength": 240000,
      "byteOffset": 0,
      "name": "floatBufferViews",
      "target": 34963
    },
    {
      "buffer": 0,
      "byteLength": 107560,
      "byteOffset": 240000,
      "byteStride": 8,
      "name": "floatBufferViews",
      "target": 34962
    },
    {
      "buffer": 0,
      "byteLength": 322680,
      "byteOffset": 347560,
      "byteStride": 12,
      "name": "floatBufferViews",
      "target": 34962
    },
    {
      "buffer": 0,
      "byteLength": 215120,
      "byteOffset": 670240,
      "byteStride": 16,
      "name": "floatBufferViews",
      "target": 34962
    }
  ],
  "buffers": [
    {
      "byteLength": 885360,
      "uri": "scene.bin"
    }
  ],
  "images": [
    {
      "uri": "textures/nike_low_baseColor.jpeg"
    },
    {
      "uri": "textures/nike_low_metallicRoughness.png"
    },
    {
      "uri": "textures/nike_low_normal.jpeg"
    }
  ],
  "materials": [
    {
      "doubleSided": true,
      "name": "nike_low",
      "normalTexture": {
        "index": 2,
        "scale": 1,
        "texCoord": 0
      },
      "occlusionTexture": {
        "index": 1,
        "strength": 1,
        "texCoord": 0
      },
      "pbrMetallicRoughness": {
        "baseColorFactor": [
          1,
          1,
          1,
          1
        ],
        "baseColorTexture": {
          "index": 0,
          "texCoord": 0
        },
        "metallicFactor": 0,
        "metallicRoughnessTexture": {
          "index": 1,
          "texCoord": 0
        },
        "roughnessFactor": 0.81037307942530201
      }
    }
  ],
  "meshes": [
    {
      "primitives": [
        {
          "attributes": {
            "NORMAL": 1,
            "POSITION": 0,
            "TANGENT": 2,
            "TEXCOORD_0": 3
          },
          "indices": 4,
          "material": 0,
          "mode": 4
        }
      ]
    }
  ],
  "nodes": [
    {
      "children": [
        1
      ],
      "name": "RootNode (gltf orientation matrix)",
      "rotation": [
        -0.70710678118654746,
        -0,
        -0,
        0.70710678118654757
      ]
    },
    {
      "children": [
        2
      ],
      "matrix": [
        -0.99999994039535522,
        0.00037592486478388309,
        1.0016530723078176e-05,
        0,
        -8.3239621792574603e-17,
        0.026635579764842987,
        -0.99964523315429688,
        0,
        -0.00037605830584652722,
        -0.99964511394500732,
        -0.026635577902197838,
        0,
        0.019371287897229195,
        -0.05591282993555069,
        -0.057418830692768097,
        1
      ],
      "name": "RootNode (model correction matrix)"
    },
    {
      "children": [
        3
      ],
      "name": "nike_low.obj.cleaner.materialmerger.gles"
    },
    {
      "mesh": 0,
      "name": ""
    }
  ],
  "samplers": [
    {
      "magFilter": 9729,
      "minFilter": 9987,
      "wrapS": 10497,
      "wrapT": 10497
    }
  ],
  "scene": 0,
  "scenes": [
    {
      "name": "OSG_Scene",
      "nodes": [
        0
      ]
    }
  ],
  "textures": [
    {
      "sampler": 0,
      "source": 0
    },
    {
      "sampler": 0,
      "source": 1
    },
    {
      "sampler": 0,
      "source": 2
    }
  ]
}

